<svg width="320" height="180" xmlns="http://www.w3.org/2000/svg">
  <defs>
    <linearGradient id="bg" x1="0%" y1="0%" x2="100%" y2="100%">
      <stop offset="0%" style="stop-color:#667eea;stop-opacity:1" />
      <stop offset="100%" style="stop-color:#764ba2;stop-opacity:1" />
    </linearGradient>
  </defs>
  
  <!-- Background -->
  <rect width="320" height="180" fill="url(#bg)" />
  
  <!-- Decorative elements -->
  <circle cx="50" cy="40" r="15" fill="rgba(255,255,255,0.1)" />
  <circle cx="270" cy="140" r="20" fill="rgba(255,255,255,0.1)" />
  <circle cx="280" cy="30" r="8" fill="rgba(255,255,255,0.15)" />
  
  <!-- Musical notes -->
  <g fill="rgba(255,255,255,0.3)">
    <circle cx="80" cy="60" r="3" />
    <rect x="83" y="45" width="1.5" height="18" />
    <path d="M83 45 Q88 42 90 45 Q88 48 83 45" />
    
    <circle cx="240" cy="120" r="3" />
    <rect x="243" y="105" width="1.5" height="18" />
    <path d="M243 105 Q248 102 250 105 Q248 108 243 105" />
  </g>
  
  <!-- Main content -->
  <g text-anchor="middle" dominant-baseline="middle">
    <!-- Microphone icon -->
    <g transform="translate(160, 70)">
      <rect x="-8" y="-15" width="16" height="25" rx="8" fill="white" opacity="0.9" />
      <rect x="-6" y="12" width="12" height="8" rx="2" fill="white" opacity="0.9" />
      <line x1="0" y1="20" x2="0" y2="28" stroke="white" stroke-width="2" opacity="0.9" />
      <line x1="-8" y1="28" x2="8" y2="28" stroke="white" stroke-width="2" opacity="0.9" />
    </g>
    
    <!-- Text -->
    <text x="160" y="110" font-family="Arial, sans-serif" font-size="18" font-weight="bold" fill="white">
      🎤 Karaokê
    </text>
    <text x="160" y="130" font-family="Arial, sans-serif" font-size="12" fill="rgba(255,255,255,0.8)">
      Carregando música...
    </text>
  </g>
  
  <!-- Sparkles -->
  <g fill="rgba(255,255,255,0.6)">
    <polygon points="40,120 42,125 47,125 43,128 45,133 40,130 35,133 37,128 33,125 38,125" />
    <polygon points="290,60 291,63 294,63 292,65 293,68 290,66 287,68 288,65 286,63 289,63" />
    <polygon points="30,160 31,162 33,162 32,163 32,165 30,164 28,165 28,163 27,162 29,162" />
  </g>
</svg>